<svg width="273" height="379" viewBox="0 0 273 379" fill="none" xmlns="http://www.w3.org/2000/svg">
<g clip-path="url(#clip0_1006_161)">
<path d="M1.2552 219.218L52.4209 270.368L271.713 51.1434L220.547 -0.00667043L1.2552 219.218Z" fill="#252324"/>
<path d="M53.7165 0.105538L2.55078 51.2556L221.843 270.48L273.008 219.33L53.7165 0.105538Z" fill="#EBAFAA"/>
</g>
<g clip-path="url(#clip1_1006_161)">
<path d="M24.9325 376.756L0 327.493H12.9996L28.6415 361.796L44.2834 327.493H57.2789L32.2975 376.756H24.9325Z" fill="#252324"/>
<path d="M83.172 378.298C78.8033 378.349 74.508 377.173 70.775 374.904C67.0652 372.634 64.0271 369.417 61.9728 365.584C59.8015 361.637 58.7158 357.13 58.7158 352.065C58.7158 347.065 59.7662 342.599 61.867 338.668C63.8774 334.842 66.8813 331.629 70.5633 329.365C74.1034 327.286 78.1047 326.118 82.2077 325.967C86.3107 325.816 90.3871 326.685 94.0709 328.498C97.2676 330.086 99.9713 332.514 101.892 335.522V327.493H112.966V376.756H101.892V368.388C99.8359 371.454 97.0598 373.969 93.8062 375.714C90.533 377.449 86.877 378.338 83.172 378.298ZM86.2499 368.869C89.1557 368.922 92.0198 368.173 94.5269 366.704C96.9197 365.276 98.8766 363.221 100.186 360.762C101.53 358.081 102.23 355.124 102.23 352.126C102.23 349.128 101.53 346.171 100.186 343.49C98.8833 341.034 96.9352 338.98 94.5513 337.549C92.0327 336.129 89.1902 335.383 86.2988 335.383C83.4074 335.383 80.5649 336.129 78.0463 337.549C75.6402 338.973 73.6693 341.028 72.3465 343.49C70.9868 346.162 70.2781 349.117 70.2781 352.114C70.2781 355.111 70.9868 358.066 72.3465 360.738C73.6696 363.206 75.6399 365.269 78.0463 366.704C80.5304 368.164 83.3685 368.913 86.2499 368.869Z" fill="#252324"/>
<path d="M150.556 378.298C145.32 378.298 140.634 377.159 136.498 374.88C132.455 372.694 129.066 369.474 126.678 365.548C124.255 361.546 123.004 356.946 123.067 352.269C123.038 348.731 123.751 345.226 125.159 341.981C126.512 338.855 128.446 336.014 130.859 333.609C133.281 331.187 136.158 329.266 139.323 327.957C142.611 326.593 146.138 325.901 149.697 325.922C154.835 325.922 159.336 326.98 163.201 329.096C166.998 331.145 170.14 334.221 172.268 337.972C174.44 341.77 175.516 346.156 175.497 351.129C175.532 351.49 175.524 351.853 175.472 352.212C175.419 352.484 175.35 352.879 175.257 353.392H134.336C134.275 356.309 135.014 359.187 136.473 361.714C137.886 364.103 139.936 366.052 142.393 367.343C145.108 368.741 148.129 369.441 151.183 369.377C154.062 369.423 156.909 368.771 159.48 367.477C162.08 366.085 164.327 364.118 166.051 361.727L174.088 365.865C171.766 369.766 168.398 372.939 164.366 375.026C160.103 377.237 155.359 378.361 150.556 378.298ZM134.861 346.148H164.459C164.089 343.924 163.173 341.827 161.793 340.043C160.424 338.295 158.657 336.9 156.639 335.974C154.466 334.99 152.102 334.498 149.717 334.533C147.268 334.495 144.84 334.979 142.593 335.953C140.554 336.839 138.768 338.22 137.398 339.97C136.022 341.775 135.147 343.91 134.861 346.16V346.148Z" fill="#252324"/>
<path d="M185.35 376.756V327.493H196.407V334.655C197.952 331.988 200.154 329.76 202.803 328.185C205.424 326.681 208.401 325.909 211.422 325.95C213.085 325.955 214.742 326.158 216.357 326.557C217.861 326.892 219.306 327.451 220.644 328.217L216.055 337.504C214.926 336.887 213.722 336.418 212.473 336.108C211.223 335.77 209.936 335.593 208.641 335.579C206.557 335.579 204.508 336.126 202.701 337.166C200.876 338.174 199.318 339.601 198.154 341.329C197.025 342.943 196.416 344.863 196.407 346.832V376.756H185.35Z" fill="#252324"/>
<path d="M226.258 376.756V294.008H237.332V346.543L256.255 327.493H270.586L247.298 351.162L271.726 376.756H257.542L237.332 355.41V376.772L226.258 376.756Z" fill="#252324"/>
<path d="M237.331 346.543L240.157 343.694L271.725 376.756H257.541L237.331 355.41" fill="#EBAFAA"/>
</g>
<defs>
<clipPath id="clip0_1006_161">
<rect width="271.742" height="270.484" fill="white" transform="translate(1.25781)"/>
</clipPath>
<clipPath id="clip1_1006_161">
<rect width="271.742" height="84.2903" fill="white" transform="translate(0 294.008)"/>
</clipPath>
</defs>
</svg>
