<svg class="" id="Ebene_1" xmlns="http://www.w3.org/2000/svg" xmlns:xlink="http://www.w3.org/1999/xlink" x="0px" y="0px" viewBox="0 0 667.5 294.7" style="enable-background:new 0 0 667.5 294.7;" xml:space="preserve">
                <style type="text/css">
                    .st0 {
                        fill: #252324;
                    }

                    .st1 {
                        fill: #EBAFAA;
                    }
                </style>
    <g>
                        <path class="st0" d="M61.3,247.1L0,126H32l38.4,84.3l38.4-84.3h31.9l-61.4,121H61.3z"></path>
        <path class="st0" d="M204.3,250.9c-10.7,0.1-21.3-2.8-30.5-8.3c-9.1-5.6-16.6-13.5-21.6-22.9c-5.3-9.7-8-20.8-8-33.2
		c0-12.3,2.6-23.3,7.7-32.9c4.9-9.4,12.3-17.3,21.4-22.9c17.7-10.4,39.4-11.2,57.7-2.1c7.9,3.9,14.5,9.9,19.2,17.3V126h27.2v121
		h-27.2v-20.6c-5,7.5-11.9,13.7-19.9,18C222.4,248.8,213.4,251,204.3,250.9z M211.9,227.7c7.1,0.1,14.2-1.7,20.3-5.3
		c5.9-3.5,10.7-8.6,13.9-14.6c6.7-13.4,6.7-29.1,0-42.4c-3.2-6-8-11.1-13.8-14.6c-12.6-7.1-28-7.1-40.5,0c-5.9,3.5-10.8,8.5-14,14.6
		c-6.8,13.3-6.8,29.1,0,42.4c3.2,6.1,8.1,11.1,14,14.7C197.8,226,204.8,227.8,211.9,227.7z"></path>
        <path class="st0" d="M369.8,250.9c-12.9,0-24.4-2.8-34.5-8.4c-9.9-5.4-18.3-13.3-24.1-22.9c-6-9.8-9-21.1-8.9-32.6
		c-0.1-8.7,1.7-17.3,5.1-25.3c3.3-7.7,8.1-14.7,14-20.6c5.9-6,13-10.7,20.8-13.9c8.1-3.4,16.7-5.1,25.5-5c12.6,0,23.7,2.6,33.2,7.8
		c9.3,5,17,12.6,22.3,21.8c5.3,9.3,8,20.1,7.9,32.3c0.1,0.9,0.1,1.8-0.1,2.7c-0.1,0.7-0.3,1.6-0.5,2.9H330
		c-0.1,7.2,1.7,14.2,5.2,20.5c3.5,5.9,8.5,10.7,14.5,13.8c6.7,3.4,14.1,5.2,21.6,5c7.1,0.1,14.1-1.5,20.4-4.7
		c6.4-3.4,11.9-8.3,16.1-14.1l19.7,10.2c-5.7,9.6-14,17.4-23.9,22.5C393.3,248.3,381.6,251,369.8,250.9z M331.3,171.9H404
		c-0.9-5.5-3.2-10.6-6.5-15c-3.4-4.3-7.7-7.7-12.7-10c-5.3-2.4-11.1-3.6-17-3.5c-6-0.1-12,1.1-17.5,3.5c-5,2.2-9.4,5.6-12.8,9.9
		C334.1,161.1,332,166.4,331.3,171.9L331.3,171.9z"></path>
        <path class="st0" d="M455.3,247.1V126h27.2v17.6c3.8-6.6,9.2-12,15.7-15.9c6.4-3.7,13.7-5.6,21.2-5.5c4.1,0,8.2,0.5,12.1,1.5
		c3.7,0.8,7.2,2.2,10.5,4.1l-11.3,22.8c-2.8-1.5-5.7-2.7-8.8-3.4c-3.1-0.8-6.2-1.3-9.4-1.3c-5.1,0-10.2,1.3-14.6,3.9
		c-4.5,2.5-8.3,6-11.2,10.2c-2.8,4-4.3,8.7-4.3,13.5v73.5L455.3,247.1z"></path>
        <path class="st0" d="M555.8,247.1V43.8H583v129.1l46.5-46.8h35.2l-57.2,58.2l60,62.9h-34.8L583,194.6v52.5L555.8,247.1z"></path>
        <path class="st1" d="M583,172.9l6.9-7l77.5,81.2h-34.8L583,194.6"></path>
                    </g>
</svg>
